<?xml version="1.0" encoding="UTF-8"?>
<svg width="3000px" height="1500px" viewBox="0 0 3000 1500" version="1.1" xmlns="http://www.w3.org/2000/svg" xmlns:xlink="http://www.w3.org/1999/xlink">
    <!-- (c) Copyright 2018 by InvoicePlane.com and Kovah.de -->
    <title>InvoicePlane</title>
    <g id="Logo-full" stroke="none" stroke-width="1" fill="none" fill-rule="evenodd">
        <g id="Text" transform="translate(232.000000, 259.000000)" fill="#363636">
            <path d="M120.975,384 L219.675,16.5 L300.525,16.5 L201.825,384 L120.975,384 Z M285.725,384 L360.8,102.6 L440.6,102.6 L432.725,132 C452.675,114.15 477.875,97.35 509.375,97.35 C559.775,97.35 592.325,128.325 592.325,179.25 C592.325,195 587.6,214.95 582.875,232.8 L542.45,384 L462.65,384 L504.125,229.65 C506.225,221.775 507.8,211.275 507.8,204.45 C507.8,181.875 493.625,169.8 468.95,169.8 C437.45,169.8 416.975,192.375 408.05,225.975 L365.525,384 L285.725,384 Z M679.175,386.1 L645.05,102.6 L726.95,102.6 L739.55,290.025 L851.375,102.6 L936.95,102.6 L751.625,386.1 L679.175,386.1 Z M1059.125,390.3 C975.65,390.3 923.675,335.175 923.675,260.1 C923.675,176.1 996.125,97.35 1086.425,97.35 C1169.9,97.35 1221.875,152.475 1221.875,227.55 C1221.875,311.55 1149.425,390.3 1059.125,390.3 Z M1062.8,322.05 C1111.625,322.05 1143.65,269.55 1143.65,229.65 C1143.65,188.7 1118.975,165.6 1082.75,165.6 C1033.925,165.6 1001.9,218.1 1001.9,258 C1001.9,298.95 1026.575,322.05 1062.8,322.05 Z M1329.3,71.625 L1348.725,0.75 L1432.725,0.75 L1413.3,71.625 L1329.3,71.625 Z M1247.4,384 L1323,102.6 L1402.8,102.6 L1327.2,384 L1247.4,384 Z M1560.575,390.3 C1483.925,390.3 1429.325,339.9 1429.325,263.25 C1429.325,171.375 1505.45,97.35 1595.225,97.35 C1657.175,97.35 1691.3,125.7 1710.725,159.3 L1649.825,202.35 C1635.65,180.825 1620.425,165.6 1588.925,165.6 C1546.925,165.6 1508.075,211.275 1508.075,263.25 C1508.075,299.475 1532.225,322.575 1563.2,322.575 C1587.875,322.575 1605.725,312.6 1626.725,294.75 L1667.675,346.725 C1638.275,372.975 1608.35,390.3 1560.575,390.3 Z M1787.775,271.125 C1790.4,304.2 1809.825,326.25 1851.825,326.25 C1872.825,326.25 1891.2,319.95 1914.3,303.675 L1951.05,353.025 C1925.85,374.025 1890.675,390.3 1842.9,390.3 C1762.05,390.3 1712.7,343.05 1712.7,265.35 C1712.7,183.975 1778.85,97.35 1879.65,97.35 C1952.625,97.35 1994.625,144.6 1994.625,207.075 C1994.625,227.025 1989.375,249.6 1980.45,271.125 L1787.775,271.125 Z M1794.6,221.25 L1916.925,221.25 C1918.5,216 1919.55,209.7 1919.55,202.875 C1919.55,179.775 1905.9,161.4 1873.35,161.4 C1837.125,161.4 1807.725,185.55 1794.6,221.25 Z" id="Invoice"></path>
            <path d="M0.3,838 L99,470.5 L215.55,470.5 C268.05,470.5 304.275,481 331.05,507.775 C349.95,526.675 359.4,551.35 359.4,583.375 C359.4,674.725 281.175,726.7 180.9,726.7 L111.075,726.7 L81.15,838 L0.3,838 Z M129.975,655.825 L185.1,655.825 C238.65,655.825 274.875,631.675 274.875,590.2 C274.875,578.125 270.675,567.625 262.8,559.75 C251.775,548.725 236.55,543.475 212.4,543.475 L159.9,543.475 L129.975,655.825 Z M351.95,838 L454.85,454.75 L534.65,454.75 L431.75,838 L351.95,838 Z M594.4,843.25 C545.575,843.25 512.5,811.75 512.5,767.65 C512.5,702.55 565.525,666.325 633.775,666.325 C664.225,666.325 689.425,671.575 713.05,678.925 L714.1,675.25 C715.675,668.95 717.25,662.65 717.25,654.25 C717.25,634.825 703.6,621.175 664.225,621.175 C636.925,621.175 609.625,628 589.15,636.4 L576.55,573.4 C605.425,561.325 641.125,553.45 681.025,553.45 C756.625,553.45 794.95,584.95 794.95,640.075 C794.95,654.775 792.325,668.425 788.65,682.6 L747.175,838 L670,838 L678.4,805.45 C655.825,829.6 627.475,843.25 594.4,843.25 Z M628.525,788.65 C661.6,788.65 690.475,762.4 699.4,731.95 L701.5,724.6 C687.85,719.35 668.425,714.625 649,714.625 C615.925,714.625 591.775,731.425 591.775,758.725 C591.775,776.05 605.95,788.65 628.525,788.65 Z M821.85,838 L896.925,556.6 L976.725,556.6 L968.85,586 C988.8,568.15 1014,551.35 1045.5,551.35 C1095.9,551.35 1128.45,582.325 1128.45,633.25 C1128.45,649 1123.725,668.95 1119,686.8 L1078.575,838 L998.775,838 L1040.25,683.65 C1042.35,675.775 1043.925,665.275 1043.925,658.45 C1043.925,635.875 1029.75,623.8 1005.075,623.8 C973.575,623.8 953.1,646.375 944.175,679.975 L901.65,838 L821.85,838 Z M1245.9,725.125 C1248.525,758.2 1267.95,780.25 1309.95,780.25 C1330.95,780.25 1349.325,773.95 1372.425,757.675 L1409.175,807.025 C1383.975,828.025 1348.8,844.3 1301.025,844.3 C1220.175,844.3 1170.825,797.05 1170.825,719.35 C1170.825,637.975 1236.975,551.35 1337.775,551.35 C1410.75,551.35 1452.75,598.6 1452.75,661.075 C1452.75,681.025 1447.5,703.6 1438.575,725.125 L1245.9,725.125 Z M1252.725,675.25 L1375.05,675.25 C1376.625,670 1377.675,663.7 1377.675,656.875 C1377.675,633.775 1364.025,615.4 1331.475,615.4 C1295.25,615.4 1265.85,639.55 1252.725,675.25 Z" id="Plane"></path>
        </g>
        <g id="Plane" transform="translate(1823.000000, 592.000000)">
            <polygon id="Path-4" fill="#1E73B8" points="384.937552 502 470.463379 542.965564 537 566.807416 374 770"></polygon>
            <polygon id="Path-3" fill="#2181CE" points="225 405.704501 985 0 386.022487 502.759354 374.09282 770 286.100457 591.54303"></polygon>
            <polygon id="Path-2" fill="#429AE1" points="0 331.59375 35.3101926 310.169922 133.434228 237.470703 985 2.27373675e-13 224.629102 406 93.565171 372.060547"></polygon>
            <polygon id="Path-5" fill="#429AE1" points="386 502.940063 467 547.934701 579.208984 590 761.699219 539.77747 985 0"></polygon>
        </g>
    </g>
</svg>