<svg width="400" height="200" xmlns="http://www.w3.org/2000/svg">
    <!-- (c) Copyright 2018 by InvoicePlane.com and Kovah.de -->
    <title>InvoicePlane</title>
    <g fill="none" fill-rule="evenodd">
        <g fill="#363636">
            <path d="M47.063 85.733l13.16-49h10.78l-13.16 49h-10.78zm21.967 0l10.01-37.52h10.64l-1.05 3.92c2.66-2.38 6.02-4.62 10.22-4.62 6.72 0 11.06 4.13 11.06 10.92 0 2.1-.63 4.76-1.26 7.14l-5.39 20.16H92.62l5.53-20.58c.28-1.05.49-2.45.49-3.36 0-3.01-1.89-4.62-5.18-4.62-4.2 0-6.93 3.01-8.12 7.49l-5.67 21.07H69.03zm52.46.28l-4.55-37.8h10.92l1.68 24.99 14.91-24.99h11.41l-24.71 37.8h-9.66zm50.66.56c-11.13 0-18.06-7.35-18.06-17.36 0-11.2 9.66-21.7 21.7-21.7 11.13 0 18.06 7.35 18.06 17.36 0 11.2-9.66 21.7-21.7 21.7zm.49-9.1c6.51 0 10.78-7 10.78-12.32 0-5.46-3.29-8.54-8.12-8.54-6.51 0-10.78 7-10.78 12.32 0 5.46 3.29 8.54 8.12 8.54zm35.533-33.39l2.59-9.45h11.2l-2.59 9.45h-11.2zm-10.92 41.65l10.08-37.52h10.64l-10.08 37.52h-10.64zm41.757.84c-10.22 0-17.5-6.72-17.5-16.94 0-12.25 10.15-22.12 22.12-22.12 8.26 0 12.81 3.78 15.4 8.26l-8.12 5.74c-1.89-2.87-3.92-4.9-8.12-4.9-5.6 0-10.78 6.09-10.78 13.02 0 4.83 3.22 7.91 7.35 7.91 3.29 0 5.67-1.33 8.47-3.71l5.46 6.93c-3.92 3.5-7.91 5.81-14.28 5.81zm30.293-15.89c.35 4.41 2.94 7.35 8.54 7.35 2.8 0 5.25-.84 8.33-3.01l4.9 6.58c-3.36 2.8-8.05 4.97-14.42 4.97-10.78 0-17.36-6.3-17.36-16.66 0-10.85 8.82-22.4 22.26-22.4 9.73 0 15.33 6.3 15.33 14.63 0 2.66-.7 5.67-1.89 8.54h-25.69zm.91-6.65h16.31c.21-.7.35-1.54.35-2.45 0-3.08-1.82-5.53-6.16-5.53-4.83 0-8.75 3.22-10.5 7.98zM30.973 146.267l13.16-49h15.54c7 0 11.83 1.4 15.4 4.97 2.52 2.52 3.78 5.81 3.78 10.08 0 12.18-10.43 19.11-23.8 19.11h-9.31l-3.99 14.84h-10.78zm17.29-24.29h7.35c7.14 0 11.97-3.22 11.97-8.75 0-1.61-.56-3.01-1.61-4.06-1.47-1.47-3.5-2.17-6.72-2.17h-7l-3.99 14.98zm29.597 24.29l13.72-51.1h10.64l-13.72 51.1H77.86zm32.327.7c-6.51 0-10.92-4.2-10.92-10.08 0-8.68 7.07-13.51 16.17-13.51 4.06 0 7.42.7 10.57 1.68l.14-.49c.21-.84.42-1.68.42-2.8 0-2.59-1.82-4.41-7.07-4.41-3.64 0-7.28.91-10.01 2.03l-1.68-8.4c3.85-1.61 8.61-2.66 13.93-2.66 10.08 0 15.19 4.2 15.19 11.55 0 1.96-.35 3.78-.84 5.67l-5.53 20.72h-10.29l1.12-4.34c-3.01 3.22-6.79 5.04-11.2 5.04zm4.55-7.28c4.41 0 8.26-3.5 9.45-7.56l.28-.98c-1.82-.7-4.41-1.33-7-1.33-4.41 0-7.63 2.24-7.63 5.88 0 2.31 1.89 3.99 4.9 3.99zm25.776 6.58l10.01-37.52h10.64l-1.05 3.92c2.66-2.38 6.02-4.62 10.22-4.62 6.72 0 11.06 4.13 11.06 10.92 0 2.1-.63 4.76-1.26 7.14l-5.39 20.16h-10.64l5.53-20.58c.28-1.05.49-2.45.49-3.36 0-3.01-1.89-4.62-5.18-4.62-4.2 0-6.93 3.01-8.12 7.49l-5.67 21.07h-10.64zm56.54-15.05c.35 4.41 2.94 7.35 8.54 7.35 2.8 0 5.25-.84 8.33-3.01l4.9 6.58c-3.36 2.8-8.05 4.97-14.42 4.97-10.78 0-17.36-6.3-17.36-16.66 0-10.85 8.82-22.4 22.26-22.4 9.73 0 15.33 6.3 15.33 14.63 0 2.66-.7 5.67-1.89 8.54h-25.69zm.91-6.65h16.31c.21-.7.35-1.54.35-2.45 0-3.08-1.82-5.53-6.16-5.53-4.83 0-8.75 3.22-10.5 7.98z"/>
        </g>
        <path fill="#1E73B8" d="M294.392 145.867l11.403 5.462 8.872 3.179-21.734 27.092z"/>
        <path fill="#2181CE" d="M273.067 133.027L374.4 78.933l-79.864 67.035-1.59 35.632-11.733-23.794z"/>
        <path fill="#429AE1" d="M243.067 123.146l4.708-2.857 13.083-9.693L374.4 78.933l-101.383 54.134-17.475-4.526zM294.533 145.992l10.8 6 14.962 5.608 24.332-6.696 29.773-71.97z"/>
    </g>
</svg>